# xmcd
#
# Track frame offsets:
#	150
#	17868
#	38590
#	57554
#	79831
#	98310
#	113027
#	133222
#	151170
#	173269
#	190927
#
# Disc length: 2608 seconds
#
# Revision: 0
# Processed by: cddbd v1.5.2PL0 Copyright (c) Steve Scherf et al.
# Submitted via: audiograbber 1.82.01
#
DISCID=7d0a2e0b
DTITLE=Kathy Mattea - The Innocent Years
DYEAR=2000
DGENRE=Country
TTITLE0=Innocent Years 
TTITLE1=Trouble With Angels 
TTITLE2=Why Can't We 
TTITLE3=Prove That By Me 
TTITLE4=Callin' Out My Name 
TTITLE5=Out Of The Blue 
TTITLE6=I Have Always Loved You 
TTITLE7=(Love Is) My Last Word 
TTITLE8=Trust Me 
TTITLE9=That's The Deal 
TTITLE10=Innocent Years (Reprise) 
EXTD=
EXTT0=
EXTT1=
EXTT2=
EXTT3=
EXTT4=
EXTT5=
EXTT6=
EXTT7=
EXTT8=
EXTT9=
EXTT10=
PLAYORDER=
